<svg xmlns="http://www.w3.org/2000/svg" viewBox="0 0 512 512">
  <rect width="512" height="512" rx="112" fill="#204D58"/>
  <g transform="translate(143 111) scale(0.755)" fill="none" stroke="#F8F7F3"
     stroke-width="11" stroke-linecap="round" stroke-linejoin="round">
    <!-- Roof / gable -->
    <path d="M150 8 L292 150 L8 150 Z"/>
    <!-- Body walls + floor -->
    <path d="M40 150 V376 H260 V150"/>
    <!-- Fan light in the gable -->
    <path d="M80 150 A70 70 0 0 1 220 150"/>
    <path d="M112 150 A38 38 0 0 1 188 150"/>
    <line x1="150" y1="150" x2="150" y2="80"/>
    <line x1="150" y1="150" x2="98" y2="98"/>
    <line x1="150" y1="150" x2="202" y2="98"/>
    <!-- Vertical mullions -->
    <line x1="95" y1="150" x2="95" y2="376"/>
    <line x1="150" y1="150" x2="150" y2="376"/>
    <line x1="205" y1="150" x2="205" y2="376"/>
    <!-- Mid transom -->
    <line x1="40" y1="306" x2="260" y2="306"/>
    <!-- Arched window tops -->
    <path d="M40 306 V250 A27.5 27.5 0 0 1 95 250 V306"/>
    <path d="M150 306 V250 A27.5 27.5 0 0 0 95 250"/>
    <path d="M150 306 V250 A27.5 27.5 0 0 1 205 250"/>
    <path d="M205 250 A27.5 27.5 0 0 1 260 250 V306"/>
  </g>
</svg>
